<?xml version="1.0" standalone="no"?>
<!DOCTYPE svg PUBLIC "-//W3C//DTD SVG 20010904//EN"
 "http://www.w3.org/TR/2001/REC-SVG-20010904/DTD/svg10.dtd">
<svg version="1.0" xmlns="http://www.w3.org/2000/svg"
 width="512.000000pt" height="512.000000pt" viewBox="0 0 512.000000 512.000000"
 preserveAspectRatio="xMidYMid meet">

<g transform="translate(0.000000,512.000000) scale(0.100000,-0.100000)"
fill="#000000" stroke="none">
<path d="M1284 4449 c-25 -13 -5 18 -474 -734 -216 -346 -393 -631 -394 -632
-1 -1 -20 3 -43 10 -34 9 -45 8 -66 -6 -29 -19 -296 -513 -304 -563 -4 -23 1
-37 18 -57 14 -15 734 -421 1624 -914 l1600 -888 660 -3 c410 -2 692 1 745 8
225 27 420 207 459 424 6 33 11 182 11 335 0 219 -3 288 -16 340 -48 194 -195
350 -384 405 -36 11 -196 27 -464 46 -225 17 -410 31 -411 32 -1 2 -171 286
-378 631 l-377 629 0 81 c0 128 -42 202 -140 246 -82 37 -101 33 -498 -120
-202 -78 -375 -144 -384 -146 -14 -4 -13 8 12 92 41 133 45 179 26 253 -19 76
-50 127 -109 178 -50 44 -627 357 -666 361 -14 1 -35 -2 -47 -8z m331 -334
c137 -73 262 -147 277 -162 31 -32 48 -72 48 -111 0 -38 -72 -282 -83 -282 -5
0 -159 90 -343 201 l-334 200 22 37 c13 21 52 86 88 145 36 59 67 107 69 107
3 0 118 -61 256 -135z m-134 -541 c216 -129 405 -238 420 -241 20 -4 147 41
484 171 251 97 466 176 478 176 37 0 47 -19 47 -87 l0 -62 -162 -123 c-90 -68
-169 -135 -177 -149 -8 -15 -11 -36 -7 -52 7 -31 898 -1192 926 -1207 31 -17
58 -12 192 32 l128 42 402 -28 c221 -15 427 -35 457 -42 113 -30 208 -117 250
-228 18 -50 21 -78 21 -231 l0 -175 -781 0 -780 0 -297 171 c-163 94 -299 173
-301 175 -2 2 44 53 102 114 59 60 109 121 113 135 8 31 -12 82 -37 95 -10 6
-33 10 -51 10 -29 0 -49 -16 -163 -130 l-130 -130 -163 94 c-90 52 -163 97
-163 101 0 3 73 65 163 136 90 71 171 143 181 159 34 55 3 115 -65 126 -33 6
-46 -3 -234 -153 -109 -87 -204 -162 -211 -166 -7 -4 -71 27 -154 75 l-142 82
34 27 c19 15 122 101 229 191 192 161 195 164 198 205 4 55 -29 93 -82 93 -30
0 -65 -26 -286 -210 -139 -116 -254 -210 -256 -210 -3 0 -34 17 -69 37 l-65
37 0 61 c1 33 5 134 10 225 10 185 2 276 -34 377 -56 152 -143 250 -374 418
-84 61 -152 113 -152 118 0 6 102 176 107 177 1 0 178 -106 394 -236z m-427
-223 c210 -158 263 -223 301 -368 22 -80 11 -447 -12 -438 -9 3 -186 103 -394
223 -241 138 -377 222 -374 230 6 18 299 481 304 482 3 0 82 -58 175 -129z
m2265 -564 c188 -313 341 -570 341 -572 0 -2 -21 -10 -47 -19 -38 -13 -49 -14
-59 -4 -33 36 -774 1007 -774 1015 1 7 193 154 196 150 1 -1 156 -258 343
-570z m-1459 -748 l1465 -844 809 -3 809 -2 -6 -46 c-11 -101 -92 -215 -187
-264 -74 -38 -123 -40 -797 -40 l-656 0 -1536 851 c-845 468 -1540 855 -1544
859 -8 7 164 341 173 335 3 -1 664 -382 1470 -846z"/>
<path d="M29 1871 c-32 -33 -36 -58 -14 -100 23 -45 57 -51 297 -51 252 0 278
6 297 63 10 30 9 41 -4 67 -9 17 -27 35 -41 40 -14 6 -133 10 -265 10 l-241 0
-29 -29z"/>
<path d="M29 1341 c-33 -33 -36 -58 -14 -101 10 -20 28 -33 53 -40 25 -8 218
-10 619 -8 l581 3 26 24 c29 27 35 83 13 112 -29 38 -40 39 -652 39 l-597 0
-29 -29z"/>
<path d="M29 811 c-33 -33 -36 -58 -14 -101 10 -20 28 -33 53 -40 26 -8 357
-10 1104 -8 l1066 3 26 24 c36 34 36 93 0 126 l-27 25 -1089 0 -1090 0 -29
-29z"/>
</g>
</svg>
