<?xml version="1.0" standalone="no"?>
<!DOCTYPE svg PUBLIC "-//W3C//DTD SVG 20010904//EN"
 "http://www.w3.org/TR/2001/REC-SVG-20010904/DTD/svg10.dtd">
<svg version="1.0" xmlns="http://www.w3.org/2000/svg"
 width="512.000000pt" height="512.000000pt" viewBox="0 0 512.000000 512.000000"
 preserveAspectRatio="xMidYMid meet">

<g transform="translate(0.000000,512.000000) scale(0.100000,-0.100000)"
fill="#000000" stroke="none">
<path d="M3490 5107 c-102 -28 -189 -120 -210 -222 -7 -35 -10 -175 -8 -407 3
-334 4 -355 24 -399 46 -99 137 -166 241 -176 83 -9 83 -10 83 -263 0 -151 4
-222 13 -239 32 -63 119 -85 174 -45 16 11 92 126 174 263 81 133 155 251 164
261 17 19 33 20 370 20 420 0 428 1 515 88 71 73 90 126 90 262 0 83 -3 101
-21 124 -26 33 -77 36 -105 5 -15 -17 -20 -42 -24 -129 -6 -122 -19 -151 -81
-182 -30 -16 -71 -18 -385 -18 -362 0 -390 -3 -446 -42 -16 -11 -83 -112 -158
-236 l-130 -217 0 155 c0 85 -5 172 -11 193 -21 76 -111 146 -187 147 -49 0
-96 24 -123 61 l-24 34 -3 348 c-3 333 -2 351 17 391 11 23 35 50 53 61 32 19
56 20 693 23 l660 2 44 -22 c65 -34 81 -70 81 -191 0 -110 6 -129 49 -146 24
-10 34 -10 60 3 39 21 44 42 39 178 -3 92 -8 121 -26 155 -34 66 -78 110 -140
140 l-57 28 -680 2 c-513 1 -691 -1 -725 -10z"/>
<path d="M1544 4829 c-152 -18 -298 -91 -415 -208 -85 -85 -138 -172 -177
-289 -24 -72 -26 -93 -30 -312 l-5 -235 -40 -30 c-23 -17 -52 -52 -66 -80 -25
-47 -26 -59 -29 -227 -4 -202 6 -257 59 -321 47 -57 100 -80 196 -85 l81 -4
22 -93 c47 -205 168 -385 338 -504 l32 -22 0 -134 c0 -129 -1 -135 -26 -164
l-25 -30 -447 -3 -447 -3 -57 -27 c-73 -34 -132 -95 -159 -166 -20 -53 -21
-68 -15 -219 l7 -161 -54 -84 c-74 -113 -112 -191 -152 -311 -58 -174 -66
-231 -72 -482 -5 -229 -5 -230 -34 -289 -31 -64 -36 -114 -17 -177 15 -51 69
-114 122 -142 l41 -22 1805 -3 c1280 -2 1818 0 1850 8 153 37 228 208 151 345
l-29 51 -5 244 c-4 222 -7 255 -30 346 -44 170 -104 306 -202 454 l-43 65 8
140 c5 77 5 158 1 181 -18 98 -86 184 -180 228 -44 20 -63 21 -500 26 l-454 5
-21 28 c-18 25 -21 45 -24 160 l-3 132 37 25 c62 41 151 128 200 195 l46 63
107 4 c88 3 116 8 162 29 65 31 120 84 151 148 22 45 23 56 26 381 4 393 2
401 -74 477 l-52 52 -4 228 c-4 220 -5 230 -30 284 -51 111 -147 184 -260 198
l-53 6 -7 53 c-11 74 -48 141 -108 195 -91 82 -85 81 -585 83 -242 1 -472 -2
-511 -7z m920 -149 c79 -18 122 -68 137 -160 5 -35 19 -79 30 -97 24 -39 92
-73 145 -73 49 0 111 -35 140 -78 30 -44 36 -113 32 -379 -3 -207 -4 -224 -23
-241 -19 -18 -156 -72 -182 -72 -10 0 -13 39 -13 160 0 161 -10 240 -37 295
-53 104 -157 173 -277 182 -58 5 -95 0 -187 -22 -158 -38 -293 -38 -439 0
-189 49 -316 22 -414 -86 -75 -83 -86 -128 -86 -344 0 -141 -3 -185 -12 -185
-29 0 -172 54 -189 71 -18 18 -19 38 -19 277 0 288 7 337 64 450 82 163 243
278 424 301 91 12 857 13 906 1z m-711 -631 c172 -44 357 -43 513 1 161 46
270 5 303 -116 6 -21 11 -118 11 -214 0 -147 3 -181 18 -210 22 -44 75 -80
118 -80 l34 0 0 -178 c0 -153 -11 -279 -26 -304 -3 -4 -25 4 -51 17 -43 23
-56 25 -197 25 -138 0 -154 -2 -191 -23 -109 -62 -137 -213 -58 -308 37 -43
93 -69 174 -77 l70 -7 -53 -35 c-132 -86 -284 -126 -448 -117 -199 10 -353 79
-495 222 -74 74 -98 105 -132 175 -64 131 -75 194 -77 415 l-1 189 38 7 c43 7
81 32 111 73 19 25 21 45 26 240 l5 213 29 37 c35 46 95 75 154 76 24 0 80 -9
125 -21z m1327 -625 l0 -176 -29 -29 c-26 -26 -36 -29 -90 -29 l-61 0 0 139 0
140 53 24 c31 14 68 42 88 66 19 22 35 41 37 41 1 0 2 -79 2 -176z m-2096 122
c26 -26 61 -50 85 -57 l41 -12 0 -144 0 -143 -49 0 c-118 0 -131 24 -131 240
0 88 2 160 5 160 2 0 24 -20 49 -44z m2092 -582 c-9 -34 -56 -85 -93 -100 -18
-8 -54 -14 -81 -14 l-48 0 17 68 c10 37 18 79 18 95 1 27 1 27 74 28 39 0 81
4 92 8 17 7 20 4 23 -27 2 -19 1 -45 -2 -58z m-461 -144 c23 -26 13 -68 -21
-80 -14 -6 -65 -10 -114 -10 -49 0 -100 4 -114 10 -30 11 -42 49 -26 79 10 20
19 21 134 21 109 0 125 -2 141 -20z m-858 -517 c80 -24 102 -27 248 -27 159 0
184 4 326 50 15 5 17 -8 21 -98 3 -56 8 -111 13 -120 7 -17 -14 -18 -359 -18
l-366 0 10 26 c6 14 10 68 10 120 0 52 2 94 5 94 3 0 44 -12 92 -27z m1690
-382 c44 -20 68 -49 82 -98 5 -17 -5 -270 -25 -638 -18 -336 -34 -631 -34
-657 l0 -48 -590 0 -590 0 6 27 c13 57 55 136 110 206 129 163 165 345 104
522 -39 113 -96 190 -194 262 -48 36 -66 43 -103 43 -38 0 -50 -5 -79 -34
l-34 -34 0 -194 c0 -106 -4 -199 -9 -206 -5 -9 -30 -12 -87 -10 l-79 3 -5 200
c-5 217 -11 238 -66 263 -64 30 -142 -3 -234 -99 -93 -97 -141 -220 -141 -364
0 -141 36 -236 131 -355 55 -67 95 -143 106 -198 l7 -32 -585 0 -585 0 -7 46
c-3 26 -6 75 -6 110 0 74 -13 108 -47 123 -34 16 -47 14 -78 -11 l-28 -22 6
-122 5 -123 -94 -3 -94 -3 0 139 c0 230 41 432 119 583 l30 58 1 -75 c2 -115
14 -181 36 -197 29 -21 84 -12 105 17 18 24 18 38 -3 411 -11 212 -18 398 -14
412 8 35 54 87 91 103 24 11 288 13 1430 13 1353 1 1401 0 1442 -18z m-1093
-701 c28 -58 31 -75 31 -155 0 -107 -24 -168 -105 -270 -63 -79 -104 -160
-127 -247 l-17 -68 -133 0 c-131 0 -133 0 -133 23 0 65 -65 204 -133 288 -88
109 -119 204 -105 326 4 35 19 86 33 115 26 51 80 118 97 118 4 0 8 -70 8
-155 0 -169 5 -188 57 -237 41 -39 74 -48 179 -48 135 0 189 25 225 105 15 33
19 67 19 195 l1 155 36 -40 c19 -22 50 -69 67 -105z m1377 -132 c51 -138 69
-257 69 -445 l0 -168 -90 3 -90 3 0 37 c0 59 30 611 36 672 l6 55 21 -40 c11
-22 33 -75 48 -117z m103 -787 c36 -34 36 -88 0 -122 l-26 -24 -1805 0 -1805
0 -24 28 c-26 30 -31 66 -13 98 27 50 -53 48 1861 46 l1786 -2 26 -24z"/>
<path d="M3653 4740 c-46 -19 -57 -83 -20 -118 19 -18 35 -22 91 -22 58 0 70
3 91 25 14 13 25 31 25 39 0 28 -22 64 -47 75 -28 13 -109 14 -140 1z"/>
<path d="M4023 4740 c-45 -18 -55 -72 -22 -114 l20 -26 360 0 c346 0 360 1
379 20 30 30 27 83 -6 109 -26 20 -37 21 -368 20 -187 0 -351 -4 -363 -9z"/>
<path d="M3654 4386 c-48 -21 -60 -80 -24 -116 20 -20 33 -20 569 -20 l550 0
15 22 c23 32 20 81 -5 104 -20 18 -46 19 -548 21 -427 2 -532 0 -557 -11z"/>
</g>
</svg>
